<svg width="18" height="20" viewBox="0 0 18 20" fill="none" xmlns="http://www.w3.org/2000/svg">
<path d="M16 0H6C4.897 0 4 0.897 4 2V8H2C0.897 8 0 8.897 0 10V19C0 19.2652 0.105357 19.5196 0.292893 19.7071C0.48043 19.8946 0.734784 20 1 20H17C17.2652 20 17.5196 19.8946 17.7071 19.7071C17.8946 19.5196 18 19.2652 18 19V2C18 0.897 17.103 0 16 0ZM2 10H8V18H2V10ZM16 18H10V10C10 8.897 9.103 8 8 8H6V2H16V18Z" fill="white"/>
<path d="M8 4H10V6H8V4ZM12 4H14V6H12V4ZM12 8.031H14V10H12V8.031ZM12 12H14V14H12V12ZM4 12.001H6V14.001H4V12.001Z" fill="white"/>
</svg>
