<svg width="155" height="34" viewBox="0 0 155 34" fill="none" xmlns="http://www.w3.org/2000/svg">
<path fill-rule="evenodd" clip-rule="evenodd" d="M25.7659 0.730982C22.9064 0.193417 19.9988 -0.0516052 17.0888 -0.000206921C14.1786 -0.0516512 11.2708 0.193371 8.41107 0.730982C6.52369 1.1299 4.79366 2.06381 3.43105 3.41932C2.06844 4.77484 1.13187 6.49364 0.735052 8.36702C-0.244855 14.0812 -0.244855 19.9184 0.735052 25.6326C1.13187 27.506 2.06844 29.2248 3.43105 30.5803C4.79366 31.9358 6.52369 32.8697 8.41107 33.2686C11.2699 33.8062 14.1768 34.0512 17.0861 33.9998C19.9961 34.0513 22.9037 33.8063 25.7632 33.2686C27.6505 32.8697 29.3806 31.9358 30.7432 30.5803C32.1058 29.2248 33.0424 27.506 33.4392 25.6326C34.4194 19.9185 34.4194 14.0811 33.4392 8.36702C33.0426 6.49399 32.1064 4.77544 30.7443 3.41996C29.3822 2.06448 27.6528 1.13037 25.7659 0.730982Z" fill="#1070CA"/>
<path d="M17.2201 26.9239C16.2863 26.7945 15.3635 26.5965 14.4593 26.3317C10.9959 25.0419 8.9999 22.5087 8.76504 18.8675C8.57349 15.8952 8.72646 12.9007 8.72646 9.85644H17.2201V26.9239Z" fill="white"/>
<path d="M27.1778 14.0246C27.1777 14.8594 26.9287 15.6755 26.462 16.3702C25.9953 17.0649 25.3318 17.607 24.5552 17.9284C23.7785 18.2497 22.9233 18.3359 22.0974 18.1761C21.2714 18.0163 20.5116 17.6176 19.9136 17.0303C19.3156 16.4429 18.9061 15.6932 18.7368 14.8755C18.5675 14.0577 18.6459 13.2086 18.9621 12.435C19.2783 11.6614 19.8182 10.9979 20.5138 10.528C21.2094 10.0582 22.0296 9.80302 22.871 9.79467C23.4348 9.78836 23.9942 9.89315 24.5168 10.103C25.0394 10.3128 25.5148 10.6234 25.9154 11.0169C26.316 11.4104 26.6339 11.8789 26.8506 12.3952C27.0673 12.9115 27.1785 13.4653 27.1778 14.0246Z" fill="white"/>
<path d="M43.0307 12.722H45.7563V14.2166H45.9329C46.0707 13.9485 46.2503 13.7035 46.4649 13.4908C46.6892 13.2705 46.9391 13.0776 47.2095 12.9161C47.4887 12.7506 47.7865 12.6182 48.0968 12.5213C48.401 12.4223 48.7189 12.3714 49.039 12.3702C49.3717 12.364 49.7035 12.4052 50.0244 12.4924C50.2722 12.5626 50.5077 12.6696 50.7229 12.81L49.9466 15.3815C49.7593 15.2908 49.5625 15.2208 49.3598 15.1727C49.1013 15.1171 48.8371 15.0912 48.5726 15.0955C48.1986 15.0912 47.8284 15.1709 47.4897 15.3285C47.1669 15.4813 46.8828 15.7041 46.6585 15.9804C46.4224 16.2733 46.2421 16.6064 46.1265 16.9634C45.9978 17.3596 45.934 17.7738 45.9377 18.1901V23.4943H43.0354L43.0307 12.722Z" fill="#314855"/>
<path d="M61.6681 20.8999C61.178 21.7651 60.4806 22.4973 59.6376 23.0317C58.7016 23.5976 57.6196 23.8804 56.5241 23.8455C55.7384 23.8537 54.9589 23.7077 54.2303 23.4157C53.5458 23.143 52.9241 22.7356 52.4025 22.2182C51.881 21.7008 51.4703 21.0841 51.1954 20.4051C50.9013 19.6746 50.7546 18.894 50.7635 18.1075C50.7595 17.3512 50.9025 16.6012 51.1845 15.8985C51.7246 14.5295 52.7879 13.4274 54.143 12.8322C54.8578 12.5186 55.6323 12.3613 56.4138 12.3709C57.2106 12.3566 58.0021 12.5023 58.7408 12.7993C59.3911 13.0647 59.974 13.4701 60.4471 13.9863C60.9135 14.5069 61.268 15.1165 61.4887 15.7777C61.7303 16.501 61.8498 17.2589 61.8427 18.0209V18.2841C61.8289 18.3639 61.8217 18.4448 61.821 18.5258C61.806 18.6055 61.7987 18.6864 61.7994 18.7675H53.6239C53.6683 19.1654 53.7923 19.5505 53.9887 19.9002C54.1644 20.2053 54.3979 20.4739 54.6763 20.6911C54.9422 20.9015 55.2468 21.0587 55.5732 21.1537C55.897 21.2487 56.2331 21.2967 56.5708 21.2961C57.1546 21.3189 57.7311 21.1614 58.2209 20.8455C58.6492 20.5532 59.0023 20.1653 59.2518 19.7129L61.6681 20.8999ZM59.0284 16.723C59.0039 16.5012 58.94 16.2855 58.8396 16.0859C58.7189 15.8383 58.5535 15.6149 58.3516 15.4265C58.12 15.21 57.8496 15.0385 57.5543 14.9209C57.1906 14.7808 56.8025 14.7135 56.4124 14.7229C55.8221 14.7133 55.2453 14.899 54.7731 15.2506C54.2874 15.6205 53.937 16.1378 53.7755 16.7237L59.0284 16.723Z" fill="#314855"/>
<path d="M74.1199 20.7455C73.6577 21.6421 72.976 22.4092 72.1374 22.9766C71.1921 23.5833 70.0815 23.8869 68.9563 23.8461C68.1632 23.8559 67.376 23.7099 66.6401 23.4164C65.9585 23.1444 65.3402 22.7368 64.8235 22.2186C64.3086 21.6979 63.9018 21.082 63.6262 20.4058C63.3321 19.6753 63.1854 18.8947 63.1944 18.1082C63.1861 17.3182 63.3328 16.5343 63.6262 15.7998C63.8954 15.122 64.3018 14.5061 64.8203 13.9901C65.3387 13.4742 65.9584 13.0691 66.6408 12.7999C67.377 12.5075 68.164 12.362 68.957 12.3716C70.0759 12.3336 71.1802 12.6325 72.1246 13.229C72.9567 13.7717 73.6112 14.5433 74.0082 15.4494L71.3489 16.5478C71.1337 16.0927 70.8012 15.702 70.3851 15.4151C69.9429 15.1456 69.4302 15.0119 68.9116 15.0311C68.5392 15.0293 68.1705 15.1041 67.8287 15.2506C67.4913 15.3952 67.1861 15.6044 66.9305 15.8663C66.6632 16.1441 66.4559 16.4731 66.3213 16.8332C66.0256 17.6583 66.0256 18.5594 66.3213 19.3846C66.4556 19.7448 66.6629 20.0739 66.9305 20.3514C67.1861 20.6133 67.4913 20.8225 67.8287 20.9671C68.1703 21.1142 68.5392 21.189 68.9116 21.1866C69.4542 21.2039 69.99 21.0624 70.4521 20.7798C70.8914 20.4882 71.2404 20.0811 71.4599 19.6041L74.1199 20.7455Z" fill="#314855"/>
<path d="M75.7822 12.722H78.5085V14.2166H78.6852C78.8225 13.9482 79.0021 13.7032 79.2171 13.4908C79.4409 13.27 79.6909 13.077 79.9617 12.9161C80.2405 12.7507 80.5378 12.6182 80.8477 12.5213C81.1521 12.4224 81.4702 12.3714 81.7905 12.3702C82.1232 12.364 82.4551 12.4052 82.776 12.4924C83.0233 12.5623 83.2585 12.6694 83.4731 12.81L82.6981 15.3815C82.5107 15.291 82.314 15.221 82.1113 15.1727C81.8528 15.1171 81.5887 15.0912 81.3241 15.0955C80.9501 15.0911 80.5798 15.1708 80.2412 15.3285C79.9184 15.4813 79.6343 15.7041 79.41 15.9804C79.1739 16.2733 78.9937 16.6064 78.8781 16.9634C78.7493 17.3596 78.6855 17.7738 78.6892 18.1901V23.4943H75.7869L75.7822 12.722Z" fill="#314855"/>
<path d="M92.3126 22.087H92.136C91.7981 22.6265 91.3246 23.0696 90.762 23.3728C90.1556 23.6942 89.4764 23.856 88.789 23.8428C88.2143 23.8862 87.6373 23.7955 87.1043 23.5779C86.5713 23.3604 86.097 23.022 85.7195 22.5899C85.0062 21.6241 84.6503 20.444 84.7117 19.2482V12.7194H87.614V18.8964C87.5642 19.5158 87.7501 20.1312 88.1352 20.6213C88.3334 20.8163 88.5713 20.9672 88.833 21.0637C89.0947 21.1603 89.3741 21.2004 89.6527 21.1813C90.0196 21.1888 90.3822 21.1018 90.7051 20.9288C91.0096 20.7584 91.2742 20.5259 91.4815 20.2466C91.7043 19.9432 91.8692 19.6019 91.9681 19.2395C92.0811 18.8351 92.1372 18.4171 92.1346 17.9974V12.722H95.0369V23.493H92.3106L92.3126 22.087Z" fill="#314855"/>
<path d="M99.1392 11.2725C98.8919 11.2728 98.647 11.224 98.4191 11.1288C98.1954 11.0373 97.9922 10.9026 97.8214 10.7326C97.6519 10.5658 97.5164 10.3681 97.4221 10.1505C97.2307 9.6855 97.2307 9.1646 97.4221 8.69958C97.5164 8.48197 97.652 8.28435 97.8214 8.11745C98.174 7.77168 98.6498 7.57777 99.1456 7.57777C99.6415 7.57777 100.117 7.77168 100.47 8.11745C100.645 8.28787 100.784 8.49128 100.88 8.71575C100.975 8.94021 101.024 9.18125 101.024 9.42472C101.024 9.6682 100.975 9.90923 100.88 10.1337C100.784 10.3582 100.645 10.5616 100.47 10.732C100.296 10.9065 100.089 11.0443 99.8603 11.1372C99.6316 11.23 99.3863 11.2761 99.1392 11.2725ZM97.6996 23.4923V12.722H100.602V23.493L97.6996 23.4923Z" fill="#314855"/>
<path d="M104.341 15.1848H102.435V12.7221H104.341V9.42271H107.244V12.7194H109.903V15.1821H107.244V19.4846C107.242 19.7249 107.268 19.9646 107.322 20.199C107.368 20.4077 107.472 20.5997 107.621 20.7542C107.731 20.8771 107.868 20.9735 108.022 21.0361C108.175 21.0988 108.341 21.1262 108.507 21.1161C108.709 21.1232 108.912 21.0971 109.106 21.0389C109.254 20.987 109.396 20.9168 109.527 20.8301L110.347 23.358C109.997 23.5217 109.628 23.6432 109.249 23.7199C108.822 23.8045 108.388 23.8454 107.953 23.8421C107.45 23.8494 106.95 23.7616 106.48 23.5836C106.068 23.4271 105.695 23.1865 105.383 22.8773C105.021 22.4948 104.741 22.0426 104.562 21.5487C104.383 21.0547 104.308 20.5295 104.341 20.0056V15.1848Z" fill="#314855"/>
<path d="M127.213 20.7455C126.75 21.6421 126.068 22.4093 125.229 22.9766C124.284 23.5834 123.173 23.887 122.048 23.8461C121.256 23.8558 120.469 23.7097 119.733 23.4164C119.052 23.1447 118.433 22.7371 117.917 22.2186C117.402 21.6978 116.996 21.0818 116.721 20.4058C116.426 19.6756 116.278 18.8948 116.288 18.1082C116.279 17.3181 116.426 16.534 116.721 15.7998C116.989 15.1219 117.395 14.5059 117.914 13.9899C118.432 13.4739 119.052 13.0689 119.734 12.7999C120.47 12.5076 121.256 12.3621 122.049 12.3716C123.168 12.3332 124.273 12.6321 125.218 13.229C126.05 13.7716 126.705 14.5432 127.103 15.4494L124.443 16.5478C124.228 16.0922 123.896 15.7013 123.479 15.4151C123.037 15.1454 122.524 15.0117 122.006 15.0311C121.633 15.0294 121.264 15.1042 120.923 15.2506C120.586 15.395 120.281 15.6043 120.026 15.8663C119.758 16.1441 119.551 16.4731 119.417 16.8332C119.121 17.6583 119.121 18.5594 119.417 19.3845C119.551 19.7447 119.758 20.0738 120.026 20.3514C120.281 20.6134 120.586 20.8227 120.923 20.9671C121.264 21.1141 121.633 21.1889 122.006 21.1866C122.548 21.2039 123.084 21.0624 123.546 20.7798C123.985 20.4882 124.334 20.0811 124.554 19.6041L127.213 20.7455Z" fill="#314855"/>
<path d="M128.874 12.7221H131.6V14.2166H131.778C131.914 13.9477 132.094 13.7026 132.31 13.4908C132.534 13.2702 132.784 13.0772 133.054 12.9161C133.333 12.7507 133.631 12.6182 133.942 12.5213C134.245 12.4225 134.563 12.3715 134.882 12.3702C135.215 12.364 135.548 12.4051 135.869 12.4924C136.116 12.5626 136.352 12.6697 136.566 12.81L135.791 15.3815C135.604 15.2911 135.407 15.221 135.204 15.1727C134.946 15.1171 134.682 15.0912 134.417 15.0955C134.043 15.0911 133.673 15.1708 133.334 15.3285C133.012 15.4813 132.728 15.7041 132.503 15.9805C132.268 16.2736 132.087 16.6066 131.971 16.9634C131.843 17.3597 131.78 17.7739 131.784 18.1901V23.4943H128.88L128.874 12.7221Z" fill="#314855"/>
<path d="M137.893 12.7221H140.619V14.1287H140.797C141.143 13.5948 141.619 13.1561 142.181 12.853C142.775 12.5289 143.443 12.3626 144.12 12.3702C144.856 12.3449 145.583 12.544 146.202 12.941C146.731 13.2845 147.148 13.7748 147.399 14.3509C147.765 13.7822 148.257 13.3044 148.839 12.9544C149.521 12.5502 150.305 12.3482 151.099 12.3722C151.691 12.3585 152.28 12.4671 152.828 12.6912C153.296 12.8893 153.709 13.1941 154.036 13.5808C154.366 13.9864 154.611 14.4535 154.756 14.9545C154.922 15.5215 155.004 16.1097 154.999 16.7002V23.4923H152.097V17.2279C152.097 15.7625 151.492 15.0297 150.28 15.0297C149.924 15.023 149.572 15.1101 149.26 15.2822C148.964 15.4511 148.709 15.6843 148.516 15.9643C148.304 16.2765 148.147 16.6217 148.051 16.9856C147.937 17.4013 147.881 17.8305 147.884 18.2613V23.4923H144.985V17.2279C144.985 15.7625 144.35 15.0297 143.079 15.0297C142.737 15.0229 142.399 15.1103 142.104 15.2822C141.819 15.4553 141.577 15.6892 141.394 15.967C141.19 16.2804 141.04 16.6256 140.952 16.9883C140.846 17.4053 140.794 17.8339 140.797 18.2639V23.495H137.894L137.893 12.7221Z" fill="#314855"/>
</svg>
