<svg width="24" height="24" viewBox="0 0 24 24" fill="none" xmlns="http://www.w3.org/2000/svg">
<path d="M3.5 12.001C3.5 11.4502 3.95045 11 4.5 11C5.04955 11 5.5 11.4502 5.5 12.001C5.5 12.5503 5.05118 13 4.5 13C3.94882 13 3.5 12.5503 3.5 12.001ZM2 12.001C2 13.3789 3.12062 14.5 4.5 14.5C5.87938 14.5 7 13.3789 7 12.001C7 10.6232 5.87938 9.5 4.5 9.5C3.12062 9.5 2 10.6232 2 12.001ZM11 12.001C11 11.4502 11.4504 11 12 11C12.5496 11 13 11.4502 13 12.001C13 12.5503 12.5512 13 12 13C11.4488 13 11 12.5503 11 12.001ZM9.5 12.001C9.5 13.3789 10.6206 14.5 12 14.5C13.3794 14.5 14.5 13.3789 14.5 12.001C14.5 10.6232 13.3794 9.5 12 9.5C10.6206 9.5 9.5 10.6232 9.5 12.001ZM22 12.001C22 12.8475 21.5771 13.597 20.9311 14.0493C20.5255 14.3332 20.032 14.5 19.5 14.5C18.968 14.5 18.4745 14.3332 18.0689 14.0493C17.4229 13.597 17 12.8475 17 12.001C17 10.6232 18.1206 9.5 19.5 9.5C20.8794 9.5 22 10.6232 22 12.001ZM19.5 13C20.0512 13 20.5 12.5503 20.5 12.001C20.5 11.4502 20.0496 11 19.5 11C18.9504 11 18.5 11.4502 18.5 12.001C18.5 12.5503 18.9488 13 19.5 13Z" fill="white"/>
</svg>
