<svg width="4" height="14" viewBox="0 0 4 14" fill="none" xmlns="http://www.w3.org/2000/svg">
<path d="M2 5.375C1.10625 5.375 0.375 6.10625 0.375 7C0.375 7.89375 1.10625 8.625 2 8.625C2.89375 8.625 3.625 7.89375 3.625 7C3.625 6.10625 2.89375 5.375 2 5.375ZM2 0.5C1.10625 0.5 0.375 1.23125 0.375 2.125C0.375 3.01875 1.10625 3.75 2 3.75C2.89375 3.75 3.625 3.01875 3.625 2.125C3.625 1.23125 2.89375 0.5 2 0.5ZM2 10.25C1.10625 10.25 0.375 10.9812 0.375 11.875C0.375 12.7688 1.10625 13.5 2 13.5C2.89375 13.5 3.625 12.7688 3.625 11.875C3.625 10.9812 2.89375 10.25 2 10.25Z" fill="#656E7A"/>
</svg>
