<svg width="20" height="20" viewBox="0 0 20 20" fill="none" xmlns="http://www.w3.org/2000/svg">
<path d="M15.5 8.5C15.5 4.63401 12.366 1.5 8.5 1.5C4.63401 1.5 1.5 4.63401 1.5 8.5C1.5 12.366 4.63401 15.5 8.5 15.5C12.366 15.5 15.5 12.366 15.5 8.5ZM13.9569 15.0173C12.4804 16.2549 10.5772 17 8.5 17C3.80558 17 0 13.1944 0 8.5C0 3.80558 3.80558 0 8.5 0C13.1944 0 17 3.80558 17 8.5C17 10.5771 16.255 12.4802 15.0175 13.9566L19.7806 18.7197C20.0735 19.0126 20.0735 19.4874 19.7806 19.7803C19.4877 20.0732 19.0128 20.0732 18.7199 19.7803L13.9569 15.0173Z" fill="#656E7A"/>
</svg>
