<svg width="20" height="20" viewBox="0 0 20 20" fill="none" xmlns="http://www.w3.org/2000/svg">
<path d="M10 14C12.206 14 14 12.206 14 10C14 7.794 12.206 6 10 6C7.79403 6 6.00003 7.794 6.00003 10C6.00003 12.206 7.79403 14 10 14ZM10 8C11.084 8 12 8.916 12 10C12 11.084 11.084 12 10 12C8.91603 12 8.00003 11.084 8.00003 10C8.00003 8.916 8.91603 8 10 8Z" fill="white"/>
<path d="M0.845008 14.136L1.84501 15.866C2.37601 16.783 3.65401 17.127 4.57501 16.596L5.10401 16.29C5.68255 16.7451 6.32042 17.1192 7.00001 17.402V18C7.00001 19.103 7.89701 20 9.00001 20H11C12.103 20 13 19.103 13 18V17.402C13.6794 17.1192 14.3172 16.7454 14.896 16.291L15.425 16.597C16.348 17.127 17.623 16.785 18.156 15.866L19.155 14.137C19.42 13.6777 19.4919 13.132 19.3548 12.6197C19.2178 12.1075 18.883 11.6706 18.424 11.405L17.919 11.113C18.0264 10.3756 18.0264 9.62645 17.919 8.889L18.424 8.597C18.8828 8.33123 19.2174 7.89433 19.3544 7.38216C19.4915 6.86998 19.4198 6.32436 19.155 5.865L18.156 4.136C17.625 3.216 16.348 2.871 15.425 3.404L14.896 3.71C14.3175 3.25491 13.6796 2.8808 13 2.598V2C13 0.897 12.103 0 11 0H9.00001C7.89701 0 7.00001 0.897 7.00001 2V2.598C6.32065 2.88084 5.68283 3.25459 5.10401 3.709L4.57501 3.403C3.65101 2.872 2.37501 3.216 1.84401 4.135L0.845008 5.864C0.579991 6.3233 0.50812 6.86901 0.645183 7.38126C0.782246 7.89352 1.11703 8.33042 1.57601 8.596L2.08101 8.888C1.97324 9.62508 1.97324 10.3739 2.08101 11.111L1.57601 11.403C1.11717 11.669 0.782537 12.106 0.645501 12.6184C0.508465 13.1307 0.580213 13.6765 0.845008 14.136ZM4.17101 11.378C4.05809 10.9273 4.00067 10.4646 4.00001 10C4.00001 9.538 4.05801 9.074 4.17001 8.622C4.22275 8.41133 4.2054 8.18921 4.12059 7.98928C4.03579 7.78935 3.88814 7.6225 3.70001 7.514L2.57701 6.864L3.57501 5.135L4.72001 5.797C4.90673 5.90505 5.12347 5.94962 5.33768 5.92401C5.55189 5.89841 5.75201 5.80401 5.90801 5.655C6.58453 5.01156 7.40034 4.53281 8.29201 4.256C8.49683 4.19347 8.67617 4.06683 8.80363 3.89473C8.93108 3.72263 8.99992 3.51416 9.00001 3.3V2H11V3.3C11.0001 3.51416 11.0689 3.72263 11.1964 3.89473C11.3238 4.06683 11.5032 4.19347 11.708 4.256C12.5995 4.53321 13.4152 5.0119 14.092 5.655C14.2482 5.80372 14.4483 5.89792 14.6624 5.92352C14.8765 5.94911 15.0932 5.90473 15.28 5.797L16.424 5.136L17.424 6.865L16.3 7.514C16.112 7.62262 15.9644 7.78948 15.8797 7.98938C15.7949 8.18927 15.7774 8.41133 15.83 8.622C15.942 9.074 16 9.538 16 10C16 10.461 15.942 10.925 15.829 11.378C15.7765 11.5888 15.7941 11.8109 15.8791 12.0108C15.9641 12.2107 16.1118 12.3775 16.3 12.486L17.423 13.135L16.425 14.864L15.28 14.203C15.0933 14.0948 14.8766 14.0501 14.6623 14.0757C14.4481 14.1013 14.2479 14.1958 14.092 14.345C13.4155 14.9884 12.5997 15.4672 11.708 15.744C11.5032 15.8065 11.3238 15.9332 11.1964 16.1053C11.0689 16.2774 11.0001 16.4858 11 16.7L11.002 18H9.00001V16.7C8.99992 16.4858 8.93108 16.2774 8.80363 16.1053C8.67617 15.9332 8.49683 15.8065 8.29201 15.744C7.40051 15.4668 6.58479 14.9881 5.90801 14.345C5.75231 14.1954 5.55206 14.1007 5.33766 14.0753C5.12325 14.0498 4.90639 14.095 4.72001 14.204L3.57601 14.866L2.57601 13.137L3.70001 12.486C3.8882 12.3775 4.03596 12.2107 4.12094 12.0108C4.20591 11.8109 4.22349 11.5888 4.17101 11.378Z" fill="white"/>
</svg>
