<svg width="105" height="17" viewBox="0 0 105 17" fill="none" xmlns="http://www.w3.org/2000/svg">
<circle cx="8.5" cy="8.5" r="8.5" fill="#1877F2"/>
<path d="M8.92336 13V8.90135H10.2561L10.4542 7.2966H8.92336V6.27444C8.92336 5.81137 9.04772 5.49432 9.6883 5.49432H10.5V4.06359C10.1051 4.01968 9.70809 3.99848 9.31089 4.00008C8.13287 4.00008 7.32407 4.7462 7.32407 6.11592V7.2936H6V8.89835H7.32696V13H8.92336Z" fill="white"/>
<circle cx="30.5" cy="8.5" r="8.5" fill="#1DA1F2"/>
<path d="M33.8767 6.90126C33.8824 6.97115 33.8824 7.04064 33.8824 7.11014C33.8824 9.23687 32.1293 11.6875 28.9256 11.6875C27.9386 11.6875 27.0216 11.4235 26.25 10.965C26.3901 10.9798 26.5251 10.985 26.6708 10.985C27.455 10.9867 28.217 10.7446 28.8339 10.2976C28.4703 10.2916 28.1179 10.1808 27.8258 9.98082C27.5337 9.78084 27.3165 9.50162 27.2046 9.18215C27.3123 9.19693 27.4204 9.20691 27.5337 9.20691C27.6899 9.20691 27.8469 9.18694 27.9926 9.1522C27.5981 9.07864 27.2433 8.88115 26.9886 8.59333C26.7339 8.30551 26.595 7.94511 26.5956 7.57342V7.55346C26.8279 7.67287 27.0973 7.74756 27.3828 7.75754C27.1436 7.6108 26.9475 7.41168 26.812 7.17795C26.6765 6.94421 26.6057 6.68314 26.606 6.418C26.606 6.11926 26.692 5.84528 26.843 5.60645C27.2808 6.10369 27.8268 6.51048 28.4456 6.80048C29.0645 7.09047 29.7425 7.2572 30.4356 7.28986C30.4087 7.17004 30.3923 7.04584 30.3923 6.92123C30.3922 6.70994 30.4372 6.5007 30.5247 6.30547C30.6122 6.11024 30.7405 5.93286 30.9023 5.78345C31.0641 5.63405 31.2562 5.51555 31.4677 5.43474C31.6791 5.35393 31.9057 5.3124 32.1345 5.3125C32.6362 5.3125 33.0891 5.5066 33.4074 5.82052C33.7975 5.75087 34.1715 5.6194 34.513 5.43192C34.383 5.80367 34.1106 6.1189 33.747 6.31855C34.0929 6.28212 34.431 6.19812 34.75 6.06934C34.5117 6.39008 34.2165 6.67135 33.8767 6.90126Z" fill="white"/>
<circle cx="52.5" cy="8.5" r="8.5" fill="#0A66C2"/>
<path d="M50.2064 6.03778C50.7001 6.03778 51.1003 5.63757 51.1003 5.14389C51.1003 4.65021 50.7001 4.25 50.2064 4.25C49.7127 4.25 49.3125 4.65021 49.3125 5.14389C49.3125 5.63757 49.7127 6.03778 50.2064 6.03778Z" fill="white"/>
<path d="M51.9443 6.71517V11.6745H53.4841V9.22198C53.4841 8.57485 53.6059 7.94815 54.4082 7.94815C55.1996 7.94815 55.2094 8.68801 55.2094 9.26283V11.6749H56.75V8.9552C56.75 7.61927 56.4624 6.59261 54.9009 6.59261C54.1513 6.59261 53.6487 7.00401 53.4433 7.39335H53.4224V6.71517H51.9443ZM49.4351 6.71517H50.9773V11.6745H49.4351V6.71517Z" fill="white"/>
<circle cx="74.5" cy="8.5" r="8.5" fill="#333333"/>
<path fill-rule="evenodd" clip-rule="evenodd" d="M74.5 4.25C72.1526 4.25 70.25 6.20073 70.25 8.60758C70.25 10.5325 71.4674 12.1661 73.1565 12.7428C73.3691 12.7821 73.4458 12.648 73.4458 12.5326C73.4458 12.4291 73.4424 12.1547 73.4411 11.7917C72.2587 12.0547 72.009 11.2071 72.009 11.2071C71.8164 10.7038 71.5373 10.5697 71.5373 10.5697C71.1516 10.2992 71.5667 10.3053 71.5667 10.3053C71.9936 10.3359 72.2173 10.7545 72.2173 10.7545C72.5966 11.4203 73.2127 11.2281 73.4539 11.1167C73.4927 10.8349 73.6035 10.6426 73.7245 10.5338C72.7811 10.4242 71.7891 10.0502 71.7891 8.37996C71.7891 7.90505 71.9549 7.51534 72.2254 7.21127C72.1824 7.10073 72.0354 6.65729 72.2676 6.05787C72.2676 6.05787 72.6243 5.94034 73.436 6.50394C73.7827 6.40724 74.1403 6.35788 74.4996 6.35714C74.8589 6.35774 75.2165 6.4071 75.5631 6.50394C76.3753 5.93991 76.7315 6.05787 76.7315 6.05787C76.9638 6.65729 76.818 7.10073 76.7737 7.21127C77.0464 7.51534 77.21 7.90462 77.21 8.37996C77.21 10.0546 76.2172 10.4224 75.2704 10.5303C75.4217 10.6649 75.558 10.9305 75.558 11.3369C75.558 11.9197 75.5529 12.3898 75.5529 12.5326C75.5529 12.6493 75.6288 12.7847 75.8456 12.7419C77.5339 12.1643 78.75 10.5321 78.75 8.60758C78.75 6.20073 76.8474 4.25 74.5 4.25Z" fill="white"/>
<circle cx="96.5" cy="8.5" r="8.5" fill="#18595F"/>
<path d="M94.8435 6.80013C94.8198 6.79672 94.7957 6.8015 94.7742 6.8139C94.7527 6.8263 94.7346 6.8458 94.7221 6.87007C94.7096 6.89435 94.7032 6.92239 94.7037 6.95086C94.7042 6.97933 94.7115 7.00703 94.7249 7.03067L95.3495 8.2875L94.3938 10.2955C94.3815 10.3209 94.375 10.3498 94.375 10.3791C94.375 10.4085 94.3815 10.4374 94.3938 10.4628C94.4068 10.4858 94.4245 10.5044 94.4453 10.5168C94.4661 10.5292 94.4893 10.5349 94.5125 10.5334H95.4088C95.4621 10.5311 95.5137 10.5106 95.5574 10.4743C95.6012 10.4381 95.6352 10.3876 95.6555 10.3289C95.6555 10.3289 96.5925 8.35443 96.6268 8.28007L96.0022 6.99349C95.9799 6.93743 95.9451 6.88975 95.9016 6.85565C95.8581 6.82155 95.8075 6.80234 95.7555 6.80013H94.8435ZM98.6412 5.31275C98.5885 5.31413 98.5374 5.33438 98.4945 5.37086C98.4516 5.40734 98.4189 5.45836 98.4007 5.51727L96.4051 9.74885L97.6824 12.5451C97.7038 12.6044 97.739 12.6551 97.7838 12.6913C97.8286 12.7276 97.8812 12.7478 97.9354 12.7496H98.8348C98.8578 12.7515 98.8807 12.7463 98.9015 12.7346C98.9223 12.7229 98.9402 12.705 98.9535 12.6827C98.9658 12.6573 98.9723 12.6284 98.9723 12.599C98.9723 12.5697 98.9658 12.5408 98.9535 12.5154L97.6824 9.75257L99.6687 5.54702C99.681 5.52158 99.6875 5.49272 99.6875 5.46335C99.6875 5.43398 99.681 5.40512 99.6687 5.37969C99.6552 5.35762 99.6372 5.33994 99.6165 5.32825C99.5958 5.31656 99.5729 5.31123 99.55 5.31275H98.6412Z" fill="white"/>
</svg>
