<svg width="20" height="20" viewBox="0 0 20 20" fill="none" xmlns="http://www.w3.org/2000/svg">
<path d="M10 4.53005e-06C8.68627 -0.00348467 7.38489 0.253588 6.17116 0.756346C4.95743 1.25911 3.85546 1.99757 2.929 2.929C1.04 4.818 0 7.33 0 10C0 12.67 1.04 15.182 2.929 17.071C4.818 18.96 7.33 20 10 20C12.67 20 15.182 18.96 17.071 17.071C18.96 15.182 20 12.67 20 10C20 7.33 18.96 4.818 17.071 2.929C16.1445 1.99757 15.0426 1.25911 13.8288 0.756346C12.6151 0.253588 11.3137 -0.00348467 10 4.53005e-06ZM15.657 15.657C14.146 17.168 12.137 18 10 18C7.863 18 5.854 17.168 4.343 15.657C2.832 14.146 2 12.137 2 10C2 7.863 2.832 5.854 4.343 4.343C5.59671 3.08464 7.23673 2.28382 9 2.069V10C9 10.2652 9.10536 10.5196 9.29289 10.7071C9.48043 10.8946 9.73478 11 10 11H17.931C17.7162 12.7633 16.9154 14.4033 15.657 15.657ZM11 9V2.062C12.7638 2.28008 14.4035 3.08322 15.657 4.343C16.9175 5.59603 17.7207 7.236 17.938 9H11Z" fill="white"/>
</svg>
